<svg xmlns="http://www.w3.org/2000/svg" width="42" height="20" viewBox="0 0 3000 1460.799"><g transform="translate(20 19.8) scale(1.40952)"><radialGradient id="a" cx="1032.27" cy="541.59" r="847.35" gradientUnits="userSpaceOnUse"><stop offset="0" stop-color="#fcf06e"/><stop offset=".99" stop-color="#dba506"/></radialGradient><path fill="url(#a)" fill-rule="evenodd" d="M2100 920.3V86.76c-5.68-44.38-40.28-79.73-84.34-86.63H85.16C36.91 7.7 0 49.37 0 99.66V907.4c0 55.64 45.19 100.74 100.93 100.74H1999.9c51.36 0 93.76-38.3 100.1-87.85z" clip-rule="evenodd"/><radialGradient id="b" cx="1042" cy="-1827.19" r="794.37" gradientTransform="matrix(1 0 0 .8718 0 1638.78)" gradientUnits="userSpaceOnUse"><stop offset="0" stop-color="#fff"/><stop offset="1" stop-color="#fff" stop-opacity="0"/></radialGradient><path fill="url(#b)" fill-rule="evenodd" d="M90 .5h1920v352.64H90z" clip-rule="evenodd" opacity=".4"/></g><path fill-rule="evenodd" d="M428.76 300.5h223.72v861.21H428.76z" clip-rule="evenodd"/><path fill="#fbfbed" d="M652.48 300.5v861.21H428.76V300.5h223.72m19.73-19.74H409.03v900.69H672.2V280.76z" opacity=".3"/><path fill-rule="evenodd" d="M1129.6 300.5l-51.8 402.33-32.06-218.79c-9.35-70.22-18.28-131.4-26.81-183.54H728.88v861.21h195.95l.7-568.64 82.48 568.64h139.57l78.24-581.3.7 581.3h195.34V300.5H1129.6z" clip-rule="evenodd"/><path fill="#fbfbed" d="M1421.86 300.5v861.21h-195.34l-.7-581.3-78.24 581.3H1008l-82.48-568.64-.7 568.64H728.88V300.5h290.05c8.53 52.13 17.46 113.32 26.8 183.54l32.06 218.79 51.82-402.33h292.25m19.73-19.74h-329.34l-2.22 17.22-33.5 260.13-11.25-76.8c-9.32-70.06-18.37-131.96-26.88-184l-2.7-16.55H709.14v900.69h235.39l.03-19.7.37-297.45 43.55 300.25 2.45 16.9h173.9l2.3-17.1 39.31-292.03.35 289.42.02 19.71h234.78V280.76z" opacity=".3"/><path fill-rule="evenodd" d="M1771.71 455.49c8.84 5.11 14.5 13.19 16.98 24.14 2.46 10.98 3.72 35.93 3.72 74.86v333.88c0 57.33-3.72 92.45-11.15 105.36-7.43 12.94-27.23 19.38-59.39 19.38V447.79c24.37 0 41 2.57 49.84 7.7zm-2.3 706.22c53.58 0 93.7-2.91 120.34-8.76 26.62-5.84 48.98-16.12 67.1-30.8 18.1-14.69 30.79-35.04 38.08-61.1 7.27-26 11.6-77.63 11.6-154.81V603.78c0-81.46-3.19-136.07-8.15-163.87-4.98-27.78-17.4-53.01-37.28-75.68-19.88-22.66-48.91-38.94-87.08-48.85-38.16-9.91-100.46-14.89-208.74-14.89h-166.92v861.22h271.04z" clip-rule="evenodd"/><path fill="#fbfbed" d="M1665.28 300.5c108.28 0 170.58 4.97 208.74 14.88 38.17 9.9 67.2 26.19 87.08 48.85 19.89 22.67 32.3 47.9 37.28 75.68 4.96 27.8 8.15 82.42 8.15 163.87v302.46c0 77.18-4.33 128.82-11.6 154.82-7.3 26.05-19.98 46.4-38.08 61.09-18.12 14.69-40.48 24.96-67.1 30.8-26.64 5.85-66.76 8.77-120.35 8.77h-271.04V300.5h166.92m56.6 712.6c32.14 0 51.95-6.43 59.38-19.37 7.43-12.91 11.15-48.03 11.15-105.36V554.49c0-38.93-1.26-63.88-3.73-74.86-2.46-10.95-8.13-19.03-16.97-24.14-8.84-5.13-25.47-7.7-49.84-7.7v565.32m-56.59-732.35h-186.65v900.69h290.77c55.56 0 96.3-3.02 124.58-9.23 29.48-6.46 54.82-18.15 75.3-34.74 21.26-17.25 36.28-41.17 44.65-71.1 8.18-29.25 12.33-83.13 12.33-160.14V603.78c0-78.49-2.92-136.35-8.45-167.33-5.6-31.28-19.7-59.95-41.88-85.23-22.42-25.57-55.05-44.06-96.95-54.94-41.33-10.73-107.24-15.52-213.7-15.52zm76.33 711.53V468.27c13.67 1.18 18.72 3.43 20.2 4.28 2.72 1.58 6.02 4.28 7.62 11.42 1.21 5.37 3.24 21.7 3.24 70.52v333.88c0 74.89-6.52 92.04-8.52 95.52-.44.76-4.11 6.07-22.54 8.4z" opacity=".3"/><path fill-rule="evenodd" d="M2373.7 952.74c0 41.68-2.08 68-6.2 78.96-4.15 10.97-22.16 16.48-35.82 16.48-13.32 0-22.2-5.29-26.71-15.9-4.5-10.6-6.73-34.8-6.73-72.63v-227.6c0-39.24 1.97-63.7 5.94-73.44 3.94-9.7 12.57-14.57 25.87-14.57 13.65 0 31.96 5.54 36.64 16.67 4.66 11.14 7 34.92 7 71.31v220.72zM2082.72 300.5v861.21h201.4l13.94-54.87c18.21 22.06 38.3 38.6 60.28 49.63 21.96 11.02 54.76 16.52 80.11 16.52 35.37 0 65.9-9.29 91.62-27.84 25.71-18.56 42.06-40.5 49.04-65.8 6.96-25.3 10.44-63.73 10.44-115.38V722.35c0-52-1.17-85.94-3.48-101.85-2.34-15.91-9.19-32.18-20.6-48.8-11.44-16.6-28.03-29.51-49.82-38.72-21.78-9.22-47.46-13.81-77.08-13.81-25.71 0-58.67 5.12-80.63 15.26-21.96 10.15-41.86 25.56-59.7 46.2V300.5h-215.52z" clip-rule="evenodd"/><path fill="#fbfbed" d="M2298.24 300.5v280.14c17.85-20.65 37.75-36.06 59.7-46.2 21.97-10.15 54.92-15.27 80.63-15.27 29.63 0 55.31 4.6 77.09 13.81 21.79 9.2 38.38 22.12 49.81 38.72 11.42 16.62 18.27 32.89 20.6 48.8 2.32 15.91 3.49 49.85 3.49 101.85v241.62c0 51.65-3.48 90.08-10.44 115.39-6.98 25.28-23.33 47.23-49.04 65.8-25.73 18.54-56.26 27.83-91.62 27.83-25.36 0-58.16-5.5-80.12-16.52-21.97-11.02-42.06-27.57-60.27-49.63l-13.94 54.87h-201.4V300.5h215.51m33.44 747.68c13.65 0 31.67-5.51 35.81-16.48 4.13-10.95 6.2-37.28 6.2-78.96V732.02c0-36.4-2.34-60.17-7-71.3-4.68-11.14-23-16.68-36.64-16.68-13.3 0-21.93 4.88-25.88 14.57-3.96 9.74-5.93 34.2-5.93 73.44v227.6c0 37.83 2.23 62.03 6.72 72.63 4.52 10.61 13.4 15.9 26.72 15.9m-13.7-767.42h-254.99v900.69h236.49l3.78-14.88 5.21-20.5a191.38 191.38 0 0 0 41.03 28.04c27.37 13.74 65.03 18.61 88.96 18.61 39.4 0 74.12-10.62 103.16-31.56 29.33-21.18 48.35-46.94 56.52-76.56 7.5-27.28 11.16-66.74 11.16-120.63V722.35c0-53.37-1.21-87.61-3.7-104.69-2.77-18.91-10.8-38.12-23.86-57.13-13.57-19.71-33.21-35.09-58.4-45.73-24.09-10.2-52.61-15.37-84.77-15.37-23.95 0-61.61 4.48-88.9 17.09a181.44 181.44 0 0 0-31.7 18.85V280.76zm13.7 747.68c-6.9 0-7.7-1.88-8.55-3.88-1.2-2.84-5.16-15.95-5.16-64.92v-227.6c0-51 3.44-63.41 4.49-66 .36-.9.6-1.02.84-1.16.46-.26 2.3-1.1 6.76-1.1 8.86 0 16.66 3.26 18.66 5.14 1.74 4.62 5.24 19.38 5.24 63.1v220.72c0 49.77-3.02 66-4.62 71.1-2.17 1.74-9.5 4.6-17.66 4.6z" opacity=".3"/></svg>