<svg xmlns="http://www.w3.org/2000/svg" viewBox="0 0 503.7 504.7"><path d="M503.7 290.8c0 118.1-112.8 213.9-251.9 213.9C112.8 504.7 0 408.9 0 290.8 0 172.7 112.8 76.9 251.9 76.9c139.1 0 251.8 95.8 251.8 213.9z" fill="#eb2127"/><linearGradient id="a" x1="136.178" x2="367.547" y1="407.735" y2="22.673" gradientTransform="matrix(1 0 0 -1 0 506)" gradientUnits="userSpaceOnUse"><stop offset=".632" stop-color="#eb2127"/><stop offset=".692" stop-color="#e42127"/><stop offset=".749" stop-color="#d62327"/><stop offset=".805" stop-color="#c12426"/><stop offset=".861" stop-color="#a52424"/><stop offset=".916" stop-color="#84201f"/><stop offset=".971" stop-color="#601817"/><stop offset="1" stop-color="#4c1111"/></linearGradient><path d="M503.7 290.8c0 118.1-112.8 213.9-251.9 213.9C112.8 504.7 0 408.9 0 290.8 0 172.7 112.8 76.9 251.9 76.9c139.1 0 251.8 95.8 251.8 213.9z" fill="url(#a)"/><radialGradient id="b" cx="289.875" cy="127.901" r="255.658" gradientTransform="matrix(.5725 0 0 -.5753 -5.925 344.452)" gradientUnits="userSpaceOnUse"><stop offset="0" stop-color="#fbba63"/><stop offset=".042" stop-color="#fab25e"/><stop offset=".29" stop-color="#f48745"/><stop offset=".519" stop-color="#f06435"/><stop offset=".72" stop-color="#ed452c"/><stop offset=".888" stop-color="#ec2c28"/><stop offset="1" stop-color="#eb2127"/></radialGradient><path d="M317.9 273.8c0 68.9-65.3 131.5-156.2 131.5-90.9 0-159.6-57.6-159.6-126.5s67-142.5 157.9-142.5c91 .1 157.9 68.6 157.9 137.5z" fill="url(#b)"/><path d="M296.9 59.1c-3.4-10.5-18.6-13.2-21.2-16.3 22.7 27.1-4.2 19.6-12.3 7.4-6.1-9.2 4.3-17.7 10.9-21.1-11.1.3-22.5 5.8-34.2 16.3 2.4 7.1 4.5 12.8 6.4 17.5l18.7-9.2c-6.8 5.1-9.7 10.3-8.7 15.7 10.2 2.7 22.1 9.1 35.3 19.5-19.2-7.4-32.8-9.1-41-5.2.4 5.6-1.4 13.8-5.2 24.6C242 99.7 233.8 94 221 91.1c-8.8-2-19.9.9-33.3 8.7 8.7-9.4 14.6-16.2 17.9-20.5 2.9-3.6-2.3-8.4-15.6-14.5 12.2 5 20.7 2.7 25.4-6.9-3.4 9.4-4 15.4-2 17.8 2 2.4 5 3.7 9.2 3.8C230 78.9 233.4 75 233 68c-1.6-3.1-1.9-10.2-.9-21.2 1-11.1 4.2-20.6 9.5-28.6 5.2-8 9.8-3.2 2.4-11l-14.7-4.3c-3.7 10.8-1.5 27.6-13 50.1-14.1-5.8-25.4-11.6-33.8-17.2l15.1 20.1c-13.2-.1-23 1.3-29.2 4.2-6.2 2.8-9.3 8.2-18.2 9.5-9 1.3-16.3 2.3-34.9-8.2 6.9 3.9 18.5 18.5 30.6 21.3 16.8 2.9 29.1 10.3 30 3.6-.9 6.9 2.6 2.8-1.9 1.1-26.4-9.7-80.9 40.8-87.4 43.3 49.2-18.9 85.6-36.6 102.5-13.4 3.8 5.2 10 12.6-.9 23-6 5.6-19.3 4.5-62 14.9 22.2-5.4 92.1 26.4 106.9-39.8-1.2 5.3 31.6 12.8 47.6 29.3 17.9 18.6 25.3 29.7 30.5 56.3 2.1 10.8 5.3-50.4-1.7-66.4-9.3-21.4-16.7-23.6-30.2-29.8 2.5 1.2 4.8-1.2 6.1-1.5 7.8-1.3 15.1-1.9 21.8-1.9h.1c9.2 0 18.9.9 29.2 2.9.5.1 1 .1 1.6.2l1.8.3c1.4.3 2.9.7 4.5 1l3.1.7c8.2 2 16.9 4.6 25.9 7.8 8.2 2.9 16.8 6.2 25.6 10.2 5.7 2.4 11.5 5.2 17.4 8.1-3.7-4.4-7.7-8.6-12.1-12.5-.6-.6-1.4-1.3-2-1.8-23.7-20.5-77-43.9-123.8-42.9 11.6-.5 24.2 1.6 18.4-16.3z" fill="#1b2d1a"/><path d="M296.9 56.2c-3.4-10.5-17.7-9.1-20.3-12.2 22.7 27.1-5.1 15.5-13.2 3.3-6.1-9.2 4.3-14.8 10.9-18.2-11.1.3-22.5 2.9-34.2 13.4 2.4 7.1 4.5 12.8 6.4 17.5l18.7-9.2c-6.8 5.1-9.7 10.3-8.7 15.7 10.2 2.7 22.1 9.1 35.3 19.5-19.2-7.4-32.8-9.1-41-5.2.4 5.6-1.4 13.8-5.2 24.6-3.6-8.7-11.9-14.3-24.6-17.2-8.8-2-19.9.9-33.3 8.7 8.7-9.4 14.6-16.2 17.9-20.5 2.9-3.6-2.3-8.4-15.6-14.5 12.2 5 20.7 2.7 25.4-6.9-3.4 9.4-4 15.4-2 17.8 2 2.4 5 3.7 9.2 3.8 7.4-.7 10.9-4.5 10.5-11.6-1.6-3.1-1.9-10.2-.9-21.2 1-11.1 4.2-20.6 9.5-28.6 5.2-8 9.8-3.2 2.4-11L229.4 0c-3.7 10.8-1.5 27.6-13 50.1-14.1-5.8-24.7-8-33.2-13.6L197.7 53c-13.2-.1-23 1.3-29.2 4.2-6.2 2.8-9.3 8.2-18.2 9.5-9 1.3-15.5 5-34.1-5.5 6.9 3.9 17.7 15.8 29.8 18.6 16.8 2.9 28.6-11.5 29.6-1.7-.7-6.9 2.9 8-1.5 6.4-26.4-9.7-80.9 40.8-87.4 43.3 49.2-18.9 85.6-36.6 102.5-13.4 3.8 5.2 10 12.6-.9 23-6 5.6-19.3 4.5-62 14.9 22.2-5.4 92.1 26.4 106.9-39.8-1.2 5.3 31.6 12.8 47.6 29.3 17.9 18.6 25.3 29.7 30.5 56.3 2.1 10.8 5.3-50.4-1.7-66.4-9.3-21.4-16.7-23.6-30.2-29.9 2.5 1.2 4.8-1.2 6.1-1.5 7.8-1.3 15.1-1.8 21.8-1.8h.1c9.2 0 18.9.9 29.2 2.9.5.1 1 .1 1.6.2l1.8.3c1.4.3 2.9.7 4.5 1l3.1.7c8.2 2 16.9 4.6 25.9 7.7 8.2 2.9 16.8 6.2 25.6 10.2 5.7 2.4 11.5 5.2 17.4 8.1-3.7-4.4-7.7-8.6-12.1-12.5-.6-.6-1.4-1.3-2-1.8-23.7-20.5-77-43.9-123.8-42.9 11.5-.4 24.1 1.7 18.3-16.2z" fill="#649941"/><radialGradient id="c" cx="220.236" cy="456.62" r="49.152" gradientTransform="matrix(1.171 0 0 -.9867 -18.124 503.274)" gradientUnits="userSpaceOnUse"><stop offset="0" stop-color="#3b2416"/><stop offset=".223" stop-color="#3b2517"/><stop offset=".368" stop-color="#3c2b1a"/><stop offset=".49" stop-color="#3d341f"/><stop offset=".6" stop-color="#3b4126"/><stop offset=".702" stop-color="#33512e"/><stop offset=".796" stop-color="#116637"/><stop offset=".808" stop-color="#016938"/></radialGradient><path d="M247.8 4.2c-2.4-6.1-14.6-2-18.4-4.2 7.3 7.9 18-2.2 10.9 15.5-3.5 8.7-8.7 14-9.2 27.6-.4 11-.9 16.1.1 20.6 1.5 6.9-1.1 12.3-8.6 13-4.2-.1-7.2-1.4-9.2-3.8-2-2.4-1.4-8.4 2-17.8-4.7 9.6-13.1 11.9-25.4 6.9 13.4 6 18.6 10.9 15.6 14.5-3.3 4.3-9.2 11.1-17.9 20.5 13.4-7.7 24.5-10.6 33.3-8.7 12.7 2.9 21 8.6 24.6 17.2 3.8-10.9 5.6-19.1 5.2-24.6 8.2-3.9 21.8-2.2 41 5.2-13.3-10.4-25.1-16.9-35.3-19.5-1-5.4 1.9-10.6 8.7-15.7L246.5 60c-1.9-4.6-4-10.4-6.4-17.5l6.7-23.5c0 .1 3.4-8.7 1-14.8z" fill="url(#c)"/></svg>